<svg xmlns="http://www.w3.org/2000/svg" width="1600" height="1200" viewBox="0 0 1600 1200" fill="none">
  <rect width="1600" height="1200" fill="url(#bg)"/>
  <circle cx="280" cy="240" r="220" fill="url(#c1)" fill-opacity="0.55"/>
  <circle cx="1340" cy="980" r="280" fill="url(#c2)" fill-opacity="0.45"/>
  <circle cx="1080" cy="280" r="160" fill="url(#c3)" fill-opacity="0.5"/>
  <g opacity="0.92">
    <rect x="560" y="420" width="480" height="360" rx="28" fill="white" fill-opacity="0.08" stroke="white" stroke-opacity="0.22"/>
    <rect x="610" y="500" width="120" height="120" rx="24" fill="url(#logo)"/>
    <path d="M640 560L670 530L700 560L670 590L640 560Z" fill="white" fill-opacity="0.95"/>
    <path d="M670 530L710 560L670 590L630 560L670 530Z" fill="white" fill-opacity="0.7"/>
    <rect x="760" y="528" width="220" height="20" rx="10" fill="white" fill-opacity="0.72"/>
    <rect x="760" y="560" width="180" height="16" rx="8" fill="white" fill-opacity="0.4"/>
  </g>
  <defs>
    <linearGradient id="bg" x1="0" y1="0" x2="1600" y2="1200" gradientUnits="userSpaceOnUse">
      <stop stop-color="#0F172A"/>
      <stop offset="0.6" stop-color="#134E4A"/>
      <stop offset="1" stop-color="#082F49"/>
    </linearGradient>
    <radialGradient id="c1" cx="0" cy="0" r="1" gradientUnits="userSpaceOnUse" gradientTransform="translate(280 240) rotate(90) scale(220)">
      <stop stop-color="#67E8F9"/>
      <stop offset="1" stop-color="#67E8F9" stop-opacity="0"/>
    </radialGradient>
    <radialGradient id="c2" cx="0" cy="0" r="1" gradientUnits="userSpaceOnUse" gradientTransform="translate(1340 980) rotate(90) scale(280)">
      <stop stop-color="#22D3EE"/>
      <stop offset="1" stop-color="#22D3EE" stop-opacity="0"/>
    </radialGradient>
    <radialGradient id="c3" cx="0" cy="0" r="1" gradientUnits="userSpaceOnUse" gradientTransform="translate(1080 280) rotate(90) scale(160)">
      <stop stop-color="#2DD4BF"/>
      <stop offset="1" stop-color="#2DD4BF" stop-opacity="0"/>
    </radialGradient>
    <linearGradient id="logo" x1="610" y1="500" x2="730" y2="620" gradientUnits="userSpaceOnUse">
      <stop stop-color="#06B6D4"/>
      <stop offset="1" stop-color="#0D9488"/>
    </linearGradient>
  </defs>
</svg>
